<svg fill="#F45F5C" version="1.1" id="Capa_1" xmlns="http://www.w3.org/2000/svg" xmlns:xlink="http://www.w3.org/1999/xlink" viewBox="0 0 28.825 28.824" xml:space="preserve" stroke="#F45F5C"><g id="SVGRepo_bgCarrier" stroke-width="0"></g><g id="SVGRepo_tracerCarrier" stroke-linecap="round" stroke-linejoin="round"></g><g id="SVGRepo_iconCarrier"> <g> <path d="M12.213,3v22.824c0,1.656-1.343,3-3,3H3.889c-1.658,0-3-1.344-3-3V3c0-1.656,1.342-3,3-3h5.324 C10.87,0,12.213,1.344,12.213,3z M24.935,0h-5.323c-1.658,0-3,1.344-3,3v22.824c0,1.656,1.342,3,3,3h5.323c1.658,0,3-1.344,3-3V3 C27.935,1.344,26.594,0,24.935,0z"></path> </g> </g></svg>